<?xml version="1.0" encoding="utf-8" standalone="no"?>
<!DOCTYPE svg PUBLIC "-//W3C//DTD SVG 1.1//EN"
  "http://www.w3.org/Graphics/SVG/1.1/DTD/svg11.dtd">
<svg xmlns:xlink="http://www.w3.org/1999/xlink" width="576pt" height="360pt" viewBox="0 0 576 360" xmlns="http://www.w3.org/2000/svg" version="1.1">
 <metadata>
  <rdf:RDF xmlns:dc="http://purl.org/dc/elements/1.1/" xmlns:cc="http://creativecommons.org/ns#" xmlns:rdf="http://www.w3.org/1999/02/22-rdf-syntax-ns#">
   <cc:Work>
    <dc:type rdf:resource="http://purl.org/dc/dcmitype/StillImage"/>
    <dc:format>image/svg+xml</dc:format>
    <dc:creator>
     <cc:Agent>
      <dc:title>Matplotlib v3.11.1, https://matplotlib.org/</dc:title>
     </cc:Agent>
    </dc:creator>
   </cc:Work>
  </rdf:RDF>
 </metadata>
 <defs>
  <style type="text/css">*{stroke-linejoin: round; stroke-linecap: butt}</style>
 </defs>
 <g id="figure_1">
  <g id="patch_1">
   <path d="M 0 360 
L 576 360 
L 576 0 
L 0 0 
z
" style="fill: #ffffff"/>
  </g>
  <g id="axes_1">
   <g id="patch_2">
    <path d="M 47.962344 317.877656 
L 565.2 317.877656 
L 565.2 26.16 
L 47.962344 26.16 
z
" style="fill: #ffffff"/>
   </g>
   <g id="matplotlib.axis_1">
    <g id="xtick_1">
     <g id="line2d_1">
      <path d="M 71.473146 317.877656 
L 71.473146 26.16 
" clip-path="url(#p8978f2fd24)" style="fill: none; stroke: #b0b0b0; stroke-opacity: 0.2; stroke-width: 0.5; stroke-linecap: square"/>
     </g>
     <g id="line2d_2">
      <defs>
       <path id="mea78bd99e2" d="M 0 0 
L 0 3.5 
" style="stroke: #000000; stroke-width: 0.8"/>
      </defs>
      <g>
       <use xlink:href="#mea78bd99e2" x="71.473146" y="317.877656" style="stroke: #000000; stroke-width: 0.8"/>
      </g>
     </g>
     <g id="text_1">
      <!-- 3 -->
      <g transform="translate(68.291896 332.475312) scale(0.1 -0.1)">
       <defs>
        <path id="DejaVuSans-16" d="M 2597 2516 
Q 3050 2419 3304 2112 
Q 3559 1806 3559 1356 
Q 3559 666 3084 287 
Q 2609 -91 1734 -91 
Q 1441 -91 1130 -33 
Q 819 25 488 141 
L 488 750 
Q 750 597 1062 519 
Q 1375 441 1716 441 
Q 2309 441 2620 675 
Q 2931 909 2931 1356 
Q 2931 1769 2642 2001 
Q 2353 2234 1838 2234 
L 1294 2234 
L 1294 2753 
L 1863 2753 
Q 2328 2753 2575 2939 
Q 2822 3125 2822 3475 
Q 2822 3834 2567 4026 
Q 2313 4219 1838 4219 
Q 1578 4219 1281 4162 
Q 984 4106 628 3988 
L 628 4550 
Q 988 4650 1302 4700 
Q 1616 4750 1894 4750 
Q 2613 4750 3031 4423 
Q 3450 4097 3450 3541 
Q 3450 3153 3228 2886 
Q 3006 2619 2597 2516 
z
" transform="scale(0.015625)"/>
       </defs>
       <use xlink:href="#DejaVuSans-16"/>
      </g>
     </g>
    </g>
    <g id="xtick_2">
     <g id="line2d_3">
      <path d="M 228.21183 317.877656 
L 228.21183 26.16 
" clip-path="url(#p8978f2fd24)" style="fill: none; stroke: #b0b0b0; stroke-opacity: 0.2; stroke-width: 0.5; stroke-linecap: square"/>
     </g>
     <g id="line2d_4">
      <g>
       <use xlink:href="#mea78bd99e2" x="228.21183" y="317.877656" style="stroke: #000000; stroke-width: 0.8"/>
      </g>
     </g>
     <g id="text_2">
      <!-- 5 -->
      <g transform="translate(225.03058 332.475312) scale(0.1 -0.1)">
       <defs>
        <path id="DejaVuSans-18" d="M 691 4666 
L 3169 4666 
L 3169 4134 
L 1269 4134 
L 1269 2991 
Q 1406 3038 1543 3061 
Q 1681 3084 1819 3084 
Q 2600 3084 3056 2656 
Q 3513 2228 3513 1497 
Q 3513 744 3044 326 
Q 2575 -91 1722 -91 
Q 1428 -91 1123 -41 
Q 819 9 494 109 
L 494 744 
Q 775 591 1075 516 
Q 1375 441 1709 441 
Q 2250 441 2565 725 
Q 2881 1009 2881 1497 
Q 2881 1984 2565 2268 
Q 2250 2553 1709 2553 
Q 1456 2553 1204 2497 
Q 953 2441 691 2322 
L 691 4666 
z
" transform="scale(0.015625)"/>
       </defs>
       <use xlink:href="#DejaVuSans-18"/>
      </g>
     </g>
    </g>
    <g id="xtick_3">
     <g id="line2d_5">
      <path d="M 384.950514 317.877656 
L 384.950514 26.16 
" clip-path="url(#p8978f2fd24)" style="fill: none; stroke: #b0b0b0; stroke-opacity: 0.2; stroke-width: 0.5; stroke-linecap: square"/>
     </g>
     <g id="line2d_6">
      <g>
       <use xlink:href="#mea78bd99e2" x="384.950514" y="317.877656" style="stroke: #000000; stroke-width: 0.8"/>
      </g>
     </g>
     <g id="text_3">
      <!-- 7 -->
      <g transform="translate(381.769264 332.475312) scale(0.1 -0.1)">
       <defs>
        <path id="DejaVuSans-1a" d="M 525 4666 
L 3525 4666 
L 3525 4397 
L 1831 0 
L 1172 0 
L 2766 4134 
L 525 4134 
L 525 4666 
z
" transform="scale(0.015625)"/>
       </defs>
       <use xlink:href="#DejaVuSans-1a"/>
      </g>
     </g>
    </g>
    <g id="xtick_4">
     <g id="line2d_7">
      <path d="M 541.689197 317.877656 
L 541.689197 26.16 
" clip-path="url(#p8978f2fd24)" style="fill: none; stroke: #b0b0b0; stroke-opacity: 0.2; stroke-width: 0.5; stroke-linecap: square"/>
     </g>
     <g id="line2d_8">
      <g>
       <use xlink:href="#mea78bd99e2" x="541.689197" y="317.877656" style="stroke: #000000; stroke-width: 0.8"/>
      </g>
     </g>
     <g id="text_4">
      <!-- None -->
      <g transform="translate(528.643885 332.475312) scale(0.1 -0.1)">
       <defs>
        <path id="DejaVuSans-31" d="M 628 4666 
L 1478 4666 
L 3547 763 
L 3547 4666 
L 4159 4666 
L 4159 0 
L 3309 0 
L 1241 3903 
L 1241 0 
L 628 0 
L 628 4666 
z
" transform="scale(0.015625)"/>
        <path id="DejaVuSans-52" d="M 1959 3097 
Q 1497 3097 1228 2736 
Q 959 2375 959 1747 
Q 959 1119 1226 758 
Q 1494 397 1959 397 
Q 2419 397 2687 759 
Q 2956 1122 2956 1747 
Q 2956 2369 2687 2733 
Q 2419 3097 1959 3097 
z
M 1959 3584 
Q 2709 3584 3137 3096 
Q 3566 2609 3566 1747 
Q 3566 888 3137 398 
Q 2709 -91 1959 -91 
Q 1206 -91 779 398 
Q 353 888 353 1747 
Q 353 2609 779 3096 
Q 1206 3584 1959 3584 
z
" transform="scale(0.015625)"/>
        <path id="DejaVuSans-51" d="M 3513 2113 
L 3513 0 
L 2938 0 
L 2938 2094 
Q 2938 2591 2744 2837 
Q 2550 3084 2163 3084 
Q 1697 3084 1428 2787 
Q 1159 2491 1159 1978 
L 1159 0 
L 581 0 
L 581 3500 
L 1159 3500 
L 1159 2956 
Q 1366 3272 1645 3428 
Q 1925 3584 2291 3584 
Q 2894 3584 3203 3211 
Q 3513 2838 3513 2113 
z
" transform="scale(0.015625)"/>
        <path id="DejaVuSans-48" d="M 3597 1894 
L 3597 1613 
L 953 1613 
Q 991 1019 1311 708 
Q 1631 397 2203 397 
Q 2534 397 2845 478 
Q 3156 559 3463 722 
L 3463 178 
Q 3153 47 2828 -22 
Q 2503 -91 2169 -91 
Q 1331 -91 842 396 
Q 353 884 353 1716 
Q 353 2575 817 3079 
Q 1281 3584 2069 3584 
Q 2775 3584 3186 3129 
Q 3597 2675 3597 1894 
z
M 3022 2063 
Q 3016 2534 2758 2815 
Q 2500 3097 2075 3097 
Q 1594 3097 1305 2825 
Q 1016 2553 972 2059 
L 3022 2063 
z
" transform="scale(0.015625)"/>
       </defs>
       <use xlink:href="#DejaVuSans-31"/>
       <use xlink:href="#DejaVuSans-52" transform="translate(74.8125 0)"/>
       <use xlink:href="#DejaVuSans-51" transform="translate(136 0)"/>
       <use xlink:href="#DejaVuSans-48" transform="translate(199.375 0)"/>
      </g>
     </g>
    </g>
    <g id="text_5">
     <!-- Profundidade -->
     <g transform="translate(273.499141 346.476094) scale(0.1 -0.1)">
      <defs>
       <path id="DejaVuSans-33" d="M 1259 4147 
L 1259 2394 
L 2053 2394 
Q 2494 2394 2734 2622 
Q 2975 2850 2975 3272 
Q 2975 3691 2734 3919 
Q 2494 4147 2053 4147 
L 1259 4147 
z
M 628 4666 
L 2053 4666 
Q 2838 4666 3239 4311 
Q 3641 3956 3641 3272 
Q 3641 2581 3239 2228 
Q 2838 1875 2053 1875 
L 1259 1875 
L 1259 0 
L 628 0 
L 628 4666 
z
" transform="scale(0.015625)"/>
       <path id="DejaVuSans-55" d="M 2631 2963 
Q 2534 3019 2420 3045 
Q 2306 3072 2169 3072 
Q 1681 3072 1420 2755 
Q 1159 2438 1159 1844 
L 1159 0 
L 581 0 
L 581 3500 
L 1159 3500 
L 1159 2956 
Q 1341 3275 1631 3429 
Q 1922 3584 2338 3584 
Q 2397 3584 2469 3576 
Q 2541 3569 2628 3553 
L 2631 2963 
z
" transform="scale(0.015625)"/>
       <path id="DejaVuSans-49" d="M 2375 4863 
L 2375 4384 
L 1825 4384 
Q 1516 4384 1395 4259 
Q 1275 4134 1275 3809 
L 1275 3500 
L 2222 3500 
L 2222 3053 
L 1275 3053 
L 1275 0 
L 697 0 
L 697 3053 
L 147 3053 
L 147 3500 
L 697 3500 
L 697 3744 
Q 697 4328 969 4595 
Q 1241 4863 1831 4863 
L 2375 4863 
z
" transform="scale(0.015625)"/>
       <path id="DejaVuSans-58" d="M 544 1381 
L 544 3500 
L 1119 3500 
L 1119 1403 
Q 1119 906 1312 657 
Q 1506 409 1894 409 
Q 2359 409 2629 706 
Q 2900 1003 2900 1516 
L 2900 3500 
L 3475 3500 
L 3475 0 
L 2900 0 
L 2900 538 
Q 2691 219 2414 64 
Q 2138 -91 1772 -91 
Q 1169 -91 856 284 
Q 544 659 544 1381 
z
M 1991 3584 
L 1991 3584 
z
" transform="scale(0.015625)"/>
       <path id="DejaVuSans-47" d="M 2906 2969 
L 2906 4863 
L 3481 4863 
L 3481 0 
L 2906 0 
L 2906 525 
Q 2725 213 2448 61 
Q 2172 -91 1784 -91 
Q 1150 -91 751 415 
Q 353 922 353 1747 
Q 353 2572 751 3078 
Q 1150 3584 1784 3584 
Q 2172 3584 2448 3432 
Q 2725 3281 2906 2969 
z
M 947 1747 
Q 947 1113 1208 752 
Q 1469 391 1925 391 
Q 2381 391 2643 752 
Q 2906 1113 2906 1747 
Q 2906 2381 2643 2742 
Q 2381 3103 1925 3103 
Q 1469 3103 1208 2742 
Q 947 2381 947 1747 
z
" transform="scale(0.015625)"/>
       <path id="DejaVuSans-4c" d="M 603 3500 
L 1178 3500 
L 1178 0 
L 603 0 
L 603 3500 
z
M 603 4863 
L 1178 4863 
L 1178 4134 
L 603 4134 
L 603 4863 
z
" transform="scale(0.015625)"/>
       <path id="DejaVuSans-44" d="M 2194 1759 
Q 1497 1759 1228 1600 
Q 959 1441 959 1056 
Q 959 750 1161 570 
Q 1363 391 1709 391 
Q 2188 391 2477 730 
Q 2766 1069 2766 1631 
L 2766 1759 
L 2194 1759 
z
M 3341 1997 
L 3341 0 
L 2766 0 
L 2766 531 
Q 2569 213 2275 61 
Q 1981 -91 1556 -91 
Q 1019 -91 701 211 
Q 384 513 384 1019 
Q 384 1609 779 1909 
Q 1175 2209 1959 2209 
L 2766 2209 
L 2766 2266 
Q 2766 2663 2505 2880 
Q 2244 3097 1772 3097 
Q 1472 3097 1187 3025 
Q 903 2953 641 2809 
L 641 3341 
Q 956 3463 1253 3523 
Q 1550 3584 1831 3584 
Q 2591 3584 2966 3190 
Q 3341 2797 3341 1997 
z
" transform="scale(0.015625)"/>
      </defs>
      <use xlink:href="#DejaVuSans-33"/>
      <use xlink:href="#DejaVuSans-55" transform="translate(58.546875 0)"/>
      <use xlink:href="#DejaVuSans-52" transform="translate(97.453125 0)"/>
      <use xlink:href="#DejaVuSans-49" transform="translate(158.640625 0)"/>
      <use xlink:href="#DejaVuSans-58" transform="translate(193.84375 0)"/>
      <use xlink:href="#DejaVuSans-51" transform="translate(257.21875 0)"/>
      <use xlink:href="#DejaVuSans-47" transform="translate(320.59375 0)"/>
      <use xlink:href="#DejaVuSans-4c" transform="translate(384.078125 0)"/>
      <use xlink:href="#DejaVuSans-47" transform="translate(411.859375 0)"/>
      <use xlink:href="#DejaVuSans-44" transform="translate(475.34375 0)"/>
      <use xlink:href="#DejaVuSans-47" transform="translate(536.625 0)"/>
      <use xlink:href="#DejaVuSans-48" transform="translate(600.109375 0)"/>
     </g>
    </g>
   </g>
   <g id="matplotlib.axis_2">
    <g id="ytick_1">
     <g id="line2d_9">
      <path d="M 47.962344 317.877656 
L 565.2 317.877656 
" clip-path="url(#p8978f2fd24)" style="fill: none; stroke: #b0b0b0; stroke-opacity: 0.2; stroke-width: 0.5; stroke-linecap: square"/>
     </g>
     <g id="line2d_10">
      <defs>
       <path id="m940a65545d" d="M 0 0 
L -3.5 0 
" style="stroke: #000000; stroke-width: 0.8"/>
      </defs>
      <g>
       <use xlink:href="#m940a65545d" x="47.962344" y="317.877656" style="stroke: #000000; stroke-width: 0.8"/>
      </g>
     </g>
     <g id="text_6">
      <!-- 0.0 -->
      <g transform="translate(25.059219 321.676484) scale(0.1 -0.1)">
       <defs>
        <path id="DejaVuSans-13" d="M 2034 4250 
Q 1547 4250 1301 3770 
Q 1056 3291 1056 2328 
Q 1056 1369 1301 889 
Q 1547 409 2034 409 
Q 2525 409 2770 889 
Q 3016 1369 3016 2328 
Q 3016 3291 2770 3770 
Q 2525 4250 2034 4250 
z
M 2034 4750 
Q 2819 4750 3233 4129 
Q 3647 3509 3647 2328 
Q 3647 1150 3233 529 
Q 2819 -91 2034 -91 
Q 1250 -91 836 529 
Q 422 1150 422 2328 
Q 422 3509 836 4129 
Q 1250 4750 2034 4750 
z
" transform="scale(0.015625)"/>
        <path id="DejaVuSans-11" d="M 684 794 
L 1344 794 
L 1344 0 
L 684 0 
L 684 794 
z
" transform="scale(0.015625)"/>
       </defs>
       <use xlink:href="#DejaVuSans-13"/>
       <use xlink:href="#DejaVuSans-11" transform="translate(63.625 0)"/>
       <use xlink:href="#DejaVuSans-13" transform="translate(95.40625 0)"/>
      </g>
     </g>
    </g>
    <g id="ytick_2">
     <g id="line2d_11">
      <path d="M 47.962344 261.778107 
L 565.2 261.778107 
" clip-path="url(#p8978f2fd24)" style="fill: none; stroke: #b0b0b0; stroke-opacity: 0.2; stroke-width: 0.5; stroke-linecap: square"/>
     </g>
     <g id="line2d_12">
      <g>
       <use xlink:href="#m940a65545d" x="47.962344" y="261.778107" style="stroke: #000000; stroke-width: 0.8"/>
      </g>
     </g>
     <g id="text_7">
      <!-- 0.2 -->
      <g transform="translate(25.059219 265.576935) scale(0.1 -0.1)">
       <defs>
        <path id="DejaVuSans-15" d="M 1228 531 
L 3431 531 
L 3431 0 
L 469 0 
L 469 531 
Q 828 903 1448 1529 
Q 2069 2156 2228 2338 
Q 2531 2678 2651 2914 
Q 2772 3150 2772 3378 
Q 2772 3750 2511 3984 
Q 2250 4219 1831 4219 
Q 1534 4219 1204 4116 
Q 875 4013 500 3803 
L 500 4441 
Q 881 4594 1212 4672 
Q 1544 4750 1819 4750 
Q 2544 4750 2975 4387 
Q 3406 4025 3406 3419 
Q 3406 3131 3298 2873 
Q 3191 2616 2906 2266 
Q 2828 2175 2409 1742 
Q 1991 1309 1228 531 
z
" transform="scale(0.015625)"/>
       </defs>
       <use xlink:href="#DejaVuSans-13"/>
       <use xlink:href="#DejaVuSans-11" transform="translate(63.625 0)"/>
       <use xlink:href="#DejaVuSans-15" transform="translate(95.40625 0)"/>
      </g>
     </g>
    </g>
    <g id="ytick_3">
     <g id="line2d_13">
      <path d="M 47.962344 205.678558 
L 565.2 205.678558 
" clip-path="url(#p8978f2fd24)" style="fill: none; stroke: #b0b0b0; stroke-opacity: 0.2; stroke-width: 0.5; stroke-linecap: square"/>
     </g>
     <g id="line2d_14">
      <g>
       <use xlink:href="#m940a65545d" x="47.962344" y="205.678558" style="stroke: #000000; stroke-width: 0.8"/>
      </g>
     </g>
     <g id="text_8">
      <!-- 0.4 -->
      <g transform="translate(25.059219 209.477386) scale(0.1 -0.1)">
       <defs>
        <path id="DejaVuSans-17" d="M 2419 4116 
L 825 1625 
L 2419 1625 
L 2419 4116 
z
M 2253 4666 
L 3047 4666 
L 3047 1625 
L 3713 1625 
L 3713 1100 
L 3047 1100 
L 3047 0 
L 2419 0 
L 2419 1100 
L 313 1100 
L 313 1709 
L 2253 4666 
z
" transform="scale(0.015625)"/>
       </defs>
       <use xlink:href="#DejaVuSans-13"/>
       <use xlink:href="#DejaVuSans-11" transform="translate(63.625 0)"/>
       <use xlink:href="#DejaVuSans-17" transform="translate(95.40625 0)"/>
      </g>
     </g>
    </g>
    <g id="ytick_4">
     <g id="line2d_15">
      <path d="M 47.962344 149.579008 
L 565.2 149.579008 
" clip-path="url(#p8978f2fd24)" style="fill: none; stroke: #b0b0b0; stroke-opacity: 0.2; stroke-width: 0.5; stroke-linecap: square"/>
     </g>
     <g id="line2d_16">
      <g>
       <use xlink:href="#m940a65545d" x="47.962344" y="149.579008" style="stroke: #000000; stroke-width: 0.8"/>
      </g>
     </g>
     <g id="text_9">
      <!-- 0.6 -->
      <g transform="translate(25.059219 153.377837) scale(0.1 -0.1)">
       <defs>
        <path id="DejaVuSans-19" d="M 2113 2584 
Q 1688 2584 1439 2293 
Q 1191 2003 1191 1497 
Q 1191 994 1439 701 
Q 1688 409 2113 409 
Q 2538 409 2786 701 
Q 3034 994 3034 1497 
Q 3034 2003 2786 2293 
Q 2538 2584 2113 2584 
z
M 3366 4563 
L 3366 3988 
Q 3128 4100 2886 4159 
Q 2644 4219 2406 4219 
Q 1781 4219 1451 3797 
Q 1122 3375 1075 2522 
Q 1259 2794 1537 2939 
Q 1816 3084 2150 3084 
Q 2853 3084 3261 2657 
Q 3669 2231 3669 1497 
Q 3669 778 3244 343 
Q 2819 -91 2113 -91 
Q 1303 -91 875 529 
Q 447 1150 447 2328 
Q 447 3434 972 4092 
Q 1497 4750 2381 4750 
Q 2619 4750 2861 4703 
Q 3103 4656 3366 4563 
z
" transform="scale(0.015625)"/>
       </defs>
       <use xlink:href="#DejaVuSans-13"/>
       <use xlink:href="#DejaVuSans-11" transform="translate(63.625 0)"/>
       <use xlink:href="#DejaVuSans-19" transform="translate(95.40625 0)"/>
      </g>
     </g>
    </g>
    <g id="ytick_5">
     <g id="line2d_17">
      <path d="M 47.962344 93.479459 
L 565.2 93.479459 
" clip-path="url(#p8978f2fd24)" style="fill: none; stroke: #b0b0b0; stroke-opacity: 0.2; stroke-width: 0.5; stroke-linecap: square"/>
     </g>
     <g id="line2d_18">
      <g>
       <use xlink:href="#m940a65545d" x="47.962344" y="93.479459" style="stroke: #000000; stroke-width: 0.8"/>
      </g>
     </g>
     <g id="text_10">
      <!-- 0.8 -->
      <g transform="translate(25.059219 97.278287) scale(0.1 -0.1)">
       <defs>
        <path id="DejaVuSans-1b" d="M 2034 2216 
Q 1584 2216 1326 1975 
Q 1069 1734 1069 1313 
Q 1069 891 1326 650 
Q 1584 409 2034 409 
Q 2484 409 2743 651 
Q 3003 894 3003 1313 
Q 3003 1734 2745 1975 
Q 2488 2216 2034 2216 
z
M 1403 2484 
Q 997 2584 770 2862 
Q 544 3141 544 3541 
Q 544 4100 942 4425 
Q 1341 4750 2034 4750 
Q 2731 4750 3128 4425 
Q 3525 4100 3525 3541 
Q 3525 3141 3298 2862 
Q 3072 2584 2669 2484 
Q 3125 2378 3379 2068 
Q 3634 1759 3634 1313 
Q 3634 634 3220 271 
Q 2806 -91 2034 -91 
Q 1263 -91 848 271 
Q 434 634 434 1313 
Q 434 1759 690 2068 
Q 947 2378 1403 2484 
z
M 1172 3481 
Q 1172 3119 1398 2916 
Q 1625 2713 2034 2713 
Q 2441 2713 2670 2916 
Q 2900 3119 2900 3481 
Q 2900 3844 2670 4047 
Q 2441 4250 2034 4250 
Q 1625 4250 1398 4047 
Q 1172 3844 1172 3481 
z
" transform="scale(0.015625)"/>
       </defs>
       <use xlink:href="#DejaVuSans-13"/>
       <use xlink:href="#DejaVuSans-11" transform="translate(63.625 0)"/>
       <use xlink:href="#DejaVuSans-1b" transform="translate(95.40625 0)"/>
      </g>
     </g>
    </g>
    <g id="ytick_6">
     <g id="line2d_19">
      <path d="M 47.962344 37.37991 
L 565.2 37.37991 
" clip-path="url(#p8978f2fd24)" style="fill: none; stroke: #b0b0b0; stroke-opacity: 0.2; stroke-width: 0.5; stroke-linecap: square"/>
     </g>
     <g id="line2d_20">
      <g>
       <use xlink:href="#m940a65545d" x="47.962344" y="37.37991" style="stroke: #000000; stroke-width: 0.8"/>
      </g>
     </g>
     <g id="text_11">
      <!-- 1.0 -->
      <g transform="translate(25.059219 41.178738) scale(0.1 -0.1)">
       <defs>
        <path id="DejaVuSans-14" d="M 794 531 
L 1825 531 
L 1825 4091 
L 703 3866 
L 703 4441 
L 1819 4666 
L 2450 4666 
L 2450 531 
L 3481 531 
L 3481 0 
L 794 0 
L 794 531 
z
" transform="scale(0.015625)"/>
       </defs>
       <use xlink:href="#DejaVuSans-14"/>
       <use xlink:href="#DejaVuSans-11" transform="translate(63.625 0)"/>
       <use xlink:href="#DejaVuSans-13" transform="translate(95.40625 0)"/>
      </g>
     </g>
    </g>
    <g id="text_12">
     <!-- F1 da classe inadimplente -->
     <g transform="translate(18.656875 237.470391) rotate(-90) scale(0.1 -0.1)">
      <defs>
       <path id="DejaVuSans-29" d="M 628 4666 
L 3309 4666 
L 3309 4134 
L 1259 4134 
L 1259 2759 
L 3109 2759 
L 3109 2228 
L 1259 2228 
L 1259 0 
L 628 0 
L 628 4666 
z
" transform="scale(0.015625)"/>
       <path id="DejaVuSans-3" transform="scale(0.015625)"/>
       <path id="DejaVuSans-46" d="M 3122 3366 
L 3122 2828 
Q 2878 2963 2633 3030 
Q 2388 3097 2138 3097 
Q 1578 3097 1268 2742 
Q 959 2388 959 1747 
Q 959 1106 1268 751 
Q 1578 397 2138 397 
Q 2388 397 2633 464 
Q 2878 531 3122 666 
L 3122 134 
Q 2881 22 2623 -34 
Q 2366 -91 2075 -91 
Q 1284 -91 818 406 
Q 353 903 353 1747 
Q 353 2603 823 3093 
Q 1294 3584 2113 3584 
Q 2378 3584 2631 3529 
Q 2884 3475 3122 3366 
z
" transform="scale(0.015625)"/>
       <path id="DejaVuSans-4f" d="M 603 4863 
L 1178 4863 
L 1178 0 
L 603 0 
L 603 4863 
z
" transform="scale(0.015625)"/>
       <path id="DejaVuSans-56" d="M 2834 3397 
L 2834 2853 
Q 2591 2978 2328 3040 
Q 2066 3103 1784 3103 
Q 1356 3103 1142 2972 
Q 928 2841 928 2578 
Q 928 2378 1081 2264 
Q 1234 2150 1697 2047 
L 1894 2003 
Q 2506 1872 2764 1633 
Q 3022 1394 3022 966 
Q 3022 478 2636 193 
Q 2250 -91 1575 -91 
Q 1294 -91 989 -36 
Q 684 19 347 128 
L 347 722 
Q 666 556 975 473 
Q 1284 391 1588 391 
Q 1994 391 2212 530 
Q 2431 669 2431 922 
Q 2431 1156 2273 1281 
Q 2116 1406 1581 1522 
L 1381 1569 
Q 847 1681 609 1914 
Q 372 2147 372 2553 
Q 372 3047 722 3315 
Q 1072 3584 1716 3584 
Q 2034 3584 2315 3537 
Q 2597 3491 2834 3397 
z
" transform="scale(0.015625)"/>
       <path id="DejaVuSans-50" d="M 3328 2828 
Q 3544 3216 3844 3400 
Q 4144 3584 4550 3584 
Q 5097 3584 5394 3201 
Q 5691 2819 5691 2113 
L 5691 0 
L 5113 0 
L 5113 2094 
Q 5113 2597 4934 2840 
Q 4756 3084 4391 3084 
Q 3944 3084 3684 2787 
Q 3425 2491 3425 1978 
L 3425 0 
L 2847 0 
L 2847 2094 
Q 2847 2600 2669 2842 
Q 2491 3084 2119 3084 
Q 1678 3084 1418 2786 
Q 1159 2488 1159 1978 
L 1159 0 
L 581 0 
L 581 3500 
L 1159 3500 
L 1159 2956 
Q 1356 3278 1631 3431 
Q 1906 3584 2284 3584 
Q 2666 3584 2933 3390 
Q 3200 3197 3328 2828 
z
" transform="scale(0.015625)"/>
       <path id="DejaVuSans-53" d="M 1159 525 
L 1159 -1331 
L 581 -1331 
L 581 3500 
L 1159 3500 
L 1159 2969 
Q 1341 3281 1617 3432 
Q 1894 3584 2278 3584 
Q 2916 3584 3314 3078 
Q 3713 2572 3713 1747 
Q 3713 922 3314 415 
Q 2916 -91 2278 -91 
Q 1894 -91 1617 61 
Q 1341 213 1159 525 
z
M 3116 1747 
Q 3116 2381 2855 2742 
Q 2594 3103 2138 3103 
Q 1681 3103 1420 2742 
Q 1159 2381 1159 1747 
Q 1159 1113 1420 752 
Q 1681 391 2138 391 
Q 2594 391 2855 752 
Q 3116 1113 3116 1747 
z
" transform="scale(0.015625)"/>
       <path id="DejaVuSans-57" d="M 1172 4494 
L 1172 3500 
L 2356 3500 
L 2356 3053 
L 1172 3053 
L 1172 1153 
Q 1172 725 1289 603 
Q 1406 481 1766 481 
L 2356 481 
L 2356 0 
L 1766 0 
Q 1100 0 847 248 
Q 594 497 594 1153 
L 594 3053 
L 172 3053 
L 172 3500 
L 594 3500 
L 594 4494 
L 1172 4494 
z
" transform="scale(0.015625)"/>
      </defs>
      <use xlink:href="#DejaVuSans-29"/>
      <use xlink:href="#DejaVuSans-14" transform="translate(57.515625 0)"/>
      <use xlink:href="#DejaVuSans-3" transform="translate(121.140625 0)"/>
      <use xlink:href="#DejaVuSans-47" transform="translate(152.921875 0)"/>
      <use xlink:href="#DejaVuSans-44" transform="translate(216.40625 0)"/>
      <use xlink:href="#DejaVuSans-3" transform="translate(277.6875 0)"/>
      <use xlink:href="#DejaVuSans-46" transform="translate(309.46875 0)"/>
      <use xlink:href="#DejaVuSans-4f" transform="translate(364.453125 0)"/>
      <use xlink:href="#DejaVuSans-44" transform="translate(392.234375 0)"/>
      <use xlink:href="#DejaVuSans-56" transform="translate(453.515625 0)"/>
      <use xlink:href="#DejaVuSans-56" transform="translate(505.609375 0)"/>
      <use xlink:href="#DejaVuSans-48" transform="translate(557.703125 0)"/>
      <use xlink:href="#DejaVuSans-3" transform="translate(619.234375 0)"/>
      <use xlink:href="#DejaVuSans-4c" transform="translate(651.015625 0)"/>
      <use xlink:href="#DejaVuSans-51" transform="translate(678.796875 0)"/>
      <use xlink:href="#DejaVuSans-44" transform="translate(742.171875 0)"/>
      <use xlink:href="#DejaVuSans-47" transform="translate(803.453125 0)"/>
      <use xlink:href="#DejaVuSans-4c" transform="translate(866.9375 0)"/>
      <use xlink:href="#DejaVuSans-50" transform="translate(894.71875 0)"/>
      <use xlink:href="#DejaVuSans-53" transform="translate(992.125 0)"/>
      <use xlink:href="#DejaVuSans-4f" transform="translate(1055.609375 0)"/>
      <use xlink:href="#DejaVuSans-48" transform="translate(1083.390625 0)"/>
      <use xlink:href="#DejaVuSans-51" transform="translate(1144.921875 0)"/>
      <use xlink:href="#DejaVuSans-57" transform="translate(1208.296875 0)"/>
      <use xlink:href="#DejaVuSans-48" transform="translate(1247.5 0)"/>
     </g>
    </g>
   </g>
   <g id="line2d_21">
    <path d="M 71.473146 119.20034 
L 228.21183 113.673174 
L 384.950514 97.269686 
L 541.689197 37.37991 
" clip-path="url(#p8978f2fd24)" style="fill: none; stroke: #568cfb; stroke-width: 1.5; stroke-linecap: square"/>
    <defs>
     <path id="m2d70df5cfd" d="M 0 3 
C 0.795609 3 1.55874 2.683901 2.12132 2.12132 
C 2.683901 1.55874 3 0.795609 3 0 
C 3 -0.795609 2.683901 -1.55874 2.12132 -2.12132 
C 1.55874 -2.683901 0.795609 -3 0 -3 
C -0.795609 -3 -1.55874 -2.683901 -2.12132 -2.12132 
C -2.683901 -1.55874 -3 -0.795609 -3 0 
C -3 0.795609 -2.683901 1.55874 -2.12132 2.12132 
C -1.55874 2.683901 -0.795609 3 0 3 
z
" style="stroke: #568cfb"/>
    </defs>
    <g clip-path="url(#p8978f2fd24)">
     <use xlink:href="#m2d70df5cfd" x="71.473146" y="119.20034" style="fill: #568cfb; stroke: #568cfb"/>
     <use xlink:href="#m2d70df5cfd" x="228.21183" y="113.673174" style="fill: #568cfb; stroke: #568cfb"/>
     <use xlink:href="#m2d70df5cfd" x="384.950514" y="97.269686" style="fill: #568cfb; stroke: #568cfb"/>
     <use xlink:href="#m2d70df5cfd" x="541.689197" y="37.37991" style="fill: #568cfb; stroke: #568cfb"/>
    </g>
   </g>
   <g id="LineCollection_1">
    <path d="M 71.473146 122.451619 
L 71.473146 117.228352 
" clip-path="url(#p8978f2fd24)" style="fill: none; stroke: #f58a3d; stroke-width: 1.5"/>
    <path d="M 228.21183 114.309091 
L 228.21183 110.188407 
" clip-path="url(#p8978f2fd24)" style="fill: none; stroke: #f58a3d; stroke-width: 1.5"/>
    <path d="M 384.950514 109.355002 
L 384.950514 102.772955 
" clip-path="url(#p8978f2fd24)" style="fill: none; stroke: #f58a3d; stroke-width: 1.5"/>
    <path d="M 541.689197 109.675593 
L 541.689197 106.484473 
" clip-path="url(#p8978f2fd24)" style="fill: none; stroke: #f58a3d; stroke-width: 1.5"/>
   </g>
   <g id="line2d_22">
    <defs>
     <path id="mb0aa48d598" d="M 4 0 
L -4 -0 
" style="stroke: #f58a3d"/>
    </defs>
    <g clip-path="url(#p8978f2fd24)">
     <use xlink:href="#mb0aa48d598" x="71.473146" y="122.451619" style="fill: #f58a3d; stroke: #f58a3d"/>
     <use xlink:href="#mb0aa48d598" x="228.21183" y="114.309091" style="fill: #f58a3d; stroke: #f58a3d"/>
     <use xlink:href="#mb0aa48d598" x="384.950514" y="109.355002" style="fill: #f58a3d; stroke: #f58a3d"/>
     <use xlink:href="#mb0aa48d598" x="541.689197" y="109.675593" style="fill: #f58a3d; stroke: #f58a3d"/>
    </g>
   </g>
   <g id="line2d_23">
    <g clip-path="url(#p8978f2fd24)">
     <use xlink:href="#mb0aa48d598" x="71.473146" y="117.228352" style="fill: #f58a3d; stroke: #f58a3d"/>
     <use xlink:href="#mb0aa48d598" x="228.21183" y="110.188407" style="fill: #f58a3d; stroke: #f58a3d"/>
     <use xlink:href="#mb0aa48d598" x="384.950514" y="102.772955" style="fill: #f58a3d; stroke: #f58a3d"/>
     <use xlink:href="#mb0aa48d598" x="541.689197" y="106.484473" style="fill: #f58a3d; stroke: #f58a3d"/>
    </g>
   </g>
   <g id="line2d_24">
    <path d="M 71.473146 116.521082 
L 228.21183 115.365399 
L 384.950514 102.636033 
L 541.689197 105.41804 
" clip-path="url(#p8978f2fd24)" style="fill: none; stroke: #c44f76; stroke-width: 1.5; stroke-linecap: square"/>
    <defs>
     <path id="m2b25b81825" d="M 0 -3 
L -3 3 
L 3 3 
z
" style="stroke: #c44f76; stroke-linejoin: miter"/>
    </defs>
    <g clip-path="url(#p8978f2fd24)">
     <use xlink:href="#m2b25b81825" x="71.473146" y="116.521082" style="fill: #c44f76; stroke: #c44f76; stroke-linejoin: miter"/>
     <use xlink:href="#m2b25b81825" x="228.21183" y="115.365399" style="fill: #c44f76; stroke: #c44f76; stroke-linejoin: miter"/>
     <use xlink:href="#m2b25b81825" x="384.950514" y="102.636033" style="fill: #c44f76; stroke: #c44f76; stroke-linejoin: miter"/>
     <use xlink:href="#m2b25b81825" x="541.689197" y="105.41804" style="fill: #c44f76; stroke: #c44f76; stroke-linejoin: miter"/>
    </g>
   </g>
   <g id="line2d_25">
    <path d="M 71.473146 119.839985 
L 228.21183 112.248749 
L 384.950514 106.063978 
L 541.689197 108.080033 
" clip-path="url(#p8978f2fd24)" style="fill: none; stroke: #f58a3d; stroke-width: 1.5; stroke-linecap: square"/>
    <defs>
     <path id="m3aa732811e" d="M -3 3 
L 3 3 
L 3 -3 
L -3 -3 
z
" style="stroke: #f58a3d; stroke-linejoin: miter"/>
    </defs>
    <g clip-path="url(#p8978f2fd24)">
     <use xlink:href="#m3aa732811e" x="71.473146" y="119.839985" style="fill: #f58a3d; stroke: #f58a3d; stroke-linejoin: miter"/>
     <use xlink:href="#m3aa732811e" x="228.21183" y="112.248749" style="fill: #f58a3d; stroke: #f58a3d; stroke-linejoin: miter"/>
     <use xlink:href="#m3aa732811e" x="384.950514" y="106.063978" style="fill: #f58a3d; stroke: #f58a3d; stroke-linejoin: miter"/>
     <use xlink:href="#m3aa732811e" x="541.689197" y="108.080033" style="fill: #f58a3d; stroke: #f58a3d; stroke-linejoin: miter"/>
    </g>
   </g>
   <g id="patch_3">
    <path d="M 47.962344 317.877656 
L 47.962344 26.16 
" style="fill: none; stroke: #000000; stroke-width: 0.8; stroke-linejoin: miter; stroke-linecap: square"/>
   </g>
   <g id="patch_4">
    <path d="M 565.2 317.877656 
L 565.2 26.16 
" style="fill: none; stroke: #000000; stroke-width: 0.8; stroke-linejoin: miter; stroke-linecap: square"/>
   </g>
   <g id="patch_5">
    <path d="M 47.962344 317.877656 
L 565.2 317.877656 
" style="fill: none; stroke: #000000; stroke-width: 0.8; stroke-linejoin: miter; stroke-linecap: square"/>
   </g>
   <g id="patch_6">
    <path d="M 47.962344 26.16 
L 565.2 26.16 
" style="fill: none; stroke: #000000; stroke-width: 0.8; stroke-linejoin: miter; stroke-linecap: square"/>
   </g>
   <g id="text_13">
    <!-- Tree: treino, validação e teste -->
    <g transform="translate(217.405234 20.16) scale(0.12 -0.12)">
     <defs>
      <path id="DejaVuSans-37" d="M -19 4666 
L 3928 4666 
L 3928 4134 
L 2272 4134 
L 2272 0 
L 1638 0 
L 1638 4134 
L -19 4134 
L -19 4666 
z
" transform="scale(0.015625)"/>
      <path id="DejaVuSans-1d" d="M 750 794 
L 1409 794 
L 1409 0 
L 750 0 
L 750 794 
z
M 750 3309 
L 1409 3309 
L 1409 2516 
L 750 2516 
L 750 3309 
z
" transform="scale(0.015625)"/>
      <path id="DejaVuSans-f" d="M 750 794 
L 1409 794 
L 1409 256 
L 897 -744 
L 494 -744 
L 750 256 
L 750 794 
z
" transform="scale(0.015625)"/>
      <path id="DejaVuSans-59" d="M 191 3500 
L 800 3500 
L 1894 563 
L 2988 3500 
L 3597 3500 
L 2284 0 
L 1503 0 
L 191 3500 
z
" transform="scale(0.015625)"/>
      <path id="DejaVuSans-a9" d="M 3122 3366 
L 3122 2828 
Q 2878 2963 2633 3030 
Q 2388 3097 2138 3097 
Q 1578 3097 1268 2742 
Q 959 2388 959 1747 
Q 959 1106 1268 751 
Q 1578 397 2138 397 
Q 2388 397 2633 464 
Q 2878 531 3122 666 
L 3122 134 
Q 2881 22 2623 -34 
Q 2366 -91 2075 -91 
Q 1284 -91 818 406 
Q 353 903 353 1747 
Q 353 2603 823 3093 
Q 1294 3584 2113 3584 
Q 2378 3584 2631 3529 
Q 2884 3475 3122 3366 
z
M 2310 0 
Q 2481 -194 2565 -358 
Q 2650 -522 2650 -672 
Q 2650 -950 2462 -1092 
Q 2275 -1234 1906 -1234 
Q 1763 -1234 1627 -1215 
Q 1491 -1197 1356 -1159 
L 1356 -750 
Q 1463 -803 1578 -826 
Q 1694 -850 1841 -850 
Q 2025 -850 2119 -775 
Q 2213 -700 2213 -556 
Q 2213 -463 2145 -327 
Q 2078 -191 1938 0 
L 2310 0 
z
" transform="scale(0.015625)"/>
      <path id="DejaVuSans-a5" d="M 2194 1759 
Q 1497 1759 1228 1600 
Q 959 1441 959 1056 
Q 959 750 1161 570 
Q 1363 391 1709 391 
Q 2188 391 2477 730 
Q 2766 1069 2766 1631 
L 2766 1759 
L 2194 1759 
z
M 3341 1997 
L 3341 0 
L 2766 0 
L 2766 531 
Q 2569 213 2275 61 
Q 1981 -91 1556 -91 
Q 1019 -91 701 211 
Q 384 513 384 1019 
Q 384 1609 779 1909 
Q 1175 2209 1959 2209 
L 2766 2209 
L 2766 2266 
Q 2766 2663 2505 2880 
Q 2244 3097 1772 3097 
Q 1472 3097 1187 3025 
Q 903 2953 641 2809 
L 641 3341 
Q 956 3463 1253 3523 
Q 1550 3584 1831 3584 
Q 2591 3584 2966 3190 
Q 3341 2797 3341 1997 
z
M 1844 4281 
L 1665 4453 
Q 1597 4516 1545 4545 
Q 1494 4575 1453 4575 
Q 1334 4575 1278 4461 
Q 1222 4347 1215 4091 
L 825 4091 
Q 831 4513 990 4742 
Q 1150 4972 1434 4972 
Q 1553 4972 1653 4928 
Q 1753 4884 1869 4781 
L 2047 4609 
Q 2115 4547 2167 4517 
Q 2219 4488 2259 4488 
Q 2378 4488 2434 4602 
Q 2490 4716 2497 4972 
L 2887 4972 
Q 2881 4550 2721 4320 
Q 2562 4091 2278 4091 
Q 2159 4091 2059 4134 
Q 1959 4178 1844 4281 
z
" transform="scale(0.015625)"/>
     </defs>
     <use xlink:href="#DejaVuSans-37"/>
     <use xlink:href="#DejaVuSans-55" transform="translate(46.375 0)"/>
     <use xlink:href="#DejaVuSans-48" transform="translate(85.28125 0)"/>
     <use xlink:href="#DejaVuSans-48" transform="translate(146.8125 0)"/>
     <use xlink:href="#DejaVuSans-1d" transform="translate(208.34375 0)"/>
     <use xlink:href="#DejaVuSans-3" transform="translate(242.03125 0)"/>
     <use xlink:href="#DejaVuSans-57" transform="translate(273.8125 0)"/>
     <use xlink:href="#DejaVuSans-55" transform="translate(313.015625 0)"/>
     <use xlink:href="#DejaVuSans-48" transform="translate(351.921875 0)"/>
     <use xlink:href="#DejaVuSans-4c" transform="translate(413.453125 0)"/>
     <use xlink:href="#DejaVuSans-51" transform="translate(441.234375 0)"/>
     <use xlink:href="#DejaVuSans-52" transform="translate(504.609375 0)"/>
     <use xlink:href="#DejaVuSans-f" transform="translate(565.796875 0)"/>
     <use xlink:href="#DejaVuSans-3" transform="translate(597.578125 0)"/>
     <use xlink:href="#DejaVuSans-59" transform="translate(629.359375 0)"/>
     <use xlink:href="#DejaVuSans-44" transform="translate(688.546875 0)"/>
     <use xlink:href="#DejaVuSans-4f" transform="translate(749.828125 0)"/>
     <use xlink:href="#DejaVuSans-4c" transform="translate(777.609375 0)"/>
     <use xlink:href="#DejaVuSans-47" transform="translate(805.390625 0)"/>
     <use xlink:href="#DejaVuSans-44" transform="translate(868.875 0)"/>
     <use xlink:href="#DejaVuSans-a9" transform="translate(930.15625 0)"/>
     <use xlink:href="#DejaVuSans-a5" transform="translate(985.140625 0)"/>
     <use xlink:href="#DejaVuSans-52" transform="translate(1046.421875 0)"/>
     <use xlink:href="#DejaVuSans-3" transform="translate(1107.609375 0)"/>
     <use xlink:href="#DejaVuSans-48" transform="translate(1139.390625 0)"/>
     <use xlink:href="#DejaVuSans-3" transform="translate(1200.921875 0)"/>
     <use xlink:href="#DejaVuSans-57" transform="translate(1232.703125 0)"/>
     <use xlink:href="#DejaVuSans-48" transform="translate(1271.90625 0)"/>
     <use xlink:href="#DejaVuSans-56" transform="translate(1333.4375 0)"/>
     <use xlink:href="#DejaVuSans-57" transform="translate(1385.53125 0)"/>
     <use xlink:href="#DejaVuSans-48" transform="translate(1424.734375 0)"/>
    </g>
   </g>
   <g id="legend_1">
    <g id="patch_7">
     <path d="M 54.262344 74.582109 
L 241.580469 74.582109 
Q 243.380469 74.582109 243.380469 72.782109 
L 243.380469 32.46 
Q 243.380469 30.66 241.580469 30.66 
L 54.262344 30.66 
Q 52.462344 30.66 52.462344 32.46 
L 52.462344 72.782109 
Q 52.462344 74.582109 54.262344 74.582109 
z
" style="fill: #ffffff; opacity: 0.8; stroke: #cccccc; stroke-linejoin: miter"/>
    </g>
    <g id="line2d_26">
     <path d="M 56.062344 37.948594 
L 65.062344 37.948594 
L 74.062344 37.948594 
" style="fill: none; stroke: #568cfb; stroke-width: 1.5; stroke-linecap: square"/>
     <g>
      <use xlink:href="#m2d70df5cfd" x="65.062344" y="37.948594" style="fill: #568cfb; stroke: #568cfb"/>
     </g>
    </g>
    <g id="text_14">
     <!-- Treino original, modelo final -->
     <g transform="translate(81.262344 41.098594) scale(0.09 -0.09)">
      <defs>
       <path id="DejaVuSans-4a" d="M 2906 1791 
Q 2906 2416 2648 2759 
Q 2391 3103 1925 3103 
Q 1463 3103 1205 2759 
Q 947 2416 947 1791 
Q 947 1169 1205 825 
Q 1463 481 1925 481 
Q 2391 481 2648 825 
Q 2906 1169 2906 1791 
z
M 3481 434 
Q 3481 -459 3084 -895 
Q 2688 -1331 1869 -1331 
Q 1566 -1331 1297 -1286 
Q 1028 -1241 775 -1147 
L 775 -588 
Q 1028 -725 1275 -790 
Q 1522 -856 1778 -856 
Q 2344 -856 2625 -561 
Q 2906 -266 2906 331 
L 2906 616 
Q 2728 306 2450 153 
Q 2172 0 1784 0 
Q 1141 0 747 490 
Q 353 981 353 1791 
Q 353 2603 747 3093 
Q 1141 3584 1784 3584 
Q 2172 3584 2450 3431 
Q 2728 3278 2906 2969 
L 2906 3500 
L 3481 3500 
L 3481 434 
z
" transform="scale(0.015625)"/>
       <path id="DejaVuSans-13af" d="M 3431 3500 
L 3431 0 
L 2853 0 
L 2853 3053 
L 1275 3053 
L 1275 0 
L 697 0 
L 697 3053 
L 147 3053 
L 147 3500 
L 697 3500 
L 697 3744 
Q 697 4316 967 4589 
Q 1238 4863 1797 4863 
L 2375 4863 
L 2375 4384 
L 1825 4384 
Q 1516 4384 1395 4259 
Q 1275 4134 1275 3809 
L 1275 3500 
L 3431 3500 
z
M 2853 4856 
L 3431 4856 
L 3431 4128 
L 2853 4128 
L 2853 4856 
z
" transform="scale(0.015625)"/>
      </defs>
      <use xlink:href="#DejaVuSans-37"/>
      <use xlink:href="#DejaVuSans-55" transform="translate(46.375 0)"/>
      <use xlink:href="#DejaVuSans-48" transform="translate(85.28125 0)"/>
      <use xlink:href="#DejaVuSans-4c" transform="translate(146.8125 0)"/>
      <use xlink:href="#DejaVuSans-51" transform="translate(174.59375 0)"/>
      <use xlink:href="#DejaVuSans-52" transform="translate(237.96875 0)"/>
      <use xlink:href="#DejaVuSans-3" transform="translate(299.15625 0)"/>
      <use xlink:href="#DejaVuSans-52" transform="translate(330.9375 0)"/>
      <use xlink:href="#DejaVuSans-55" transform="translate(392.125 0)"/>
      <use xlink:href="#DejaVuSans-4c" transform="translate(433.234375 0)"/>
      <use xlink:href="#DejaVuSans-4a" transform="translate(461.015625 0)"/>
      <use xlink:href="#DejaVuSans-4c" transform="translate(524.5 0)"/>
      <use xlink:href="#DejaVuSans-51" transform="translate(552.28125 0)"/>
      <use xlink:href="#DejaVuSans-44" transform="translate(615.65625 0)"/>
      <use xlink:href="#DejaVuSans-4f" transform="translate(676.9375 0)"/>
      <use xlink:href="#DejaVuSans-f" transform="translate(704.71875 0)"/>
      <use xlink:href="#DejaVuSans-3" transform="translate(736.5 0)"/>
      <use xlink:href="#DejaVuSans-50" transform="translate(768.28125 0)"/>
      <use xlink:href="#DejaVuSans-52" transform="translate(865.6875 0)"/>
      <use xlink:href="#DejaVuSans-47" transform="translate(926.875 0)"/>
      <use xlink:href="#DejaVuSans-48" transform="translate(990.359375 0)"/>
      <use xlink:href="#DejaVuSans-4f" transform="translate(1051.890625 0)"/>
      <use xlink:href="#DejaVuSans-52" transform="translate(1079.671875 0)"/>
      <use xlink:href="#DejaVuSans-3" transform="translate(1140.859375 0)"/>
      <use xlink:href="#DejaVuSans-13af" transform="translate(1172.640625 0)"/>
      <use xlink:href="#DejaVuSans-51" transform="translate(1235.625 0)"/>
      <use xlink:href="#DejaVuSans-44" transform="translate(1299 0)"/>
      <use xlink:href="#DejaVuSans-4f" transform="translate(1360.28125 0)"/>
     </g>
    </g>
    <g id="line2d_27">
     <path d="M 56.062344 51.809297 
L 65.062344 51.809297 
L 74.062344 51.809297 
" style="fill: none; stroke: #c44f76; stroke-width: 1.5; stroke-linecap: square"/>
     <g>
      <use xlink:href="#m2b25b81825" x="65.062344" y="51.809297" style="fill: #c44f76; stroke: #c44f76; stroke-linejoin: miter"/>
     </g>
    </g>
    <g id="text_15">
     <!-- Teste: comparação após seleção -->
     <g transform="translate(81.262344 54.959297) scale(0.09 -0.09)">
      <defs>
       <path id="DejaVuSans-b5" d="M 1959 3097 
Q 1497 3097 1228 2736 
Q 959 2375 959 1747 
Q 959 1119 1226 758 
Q 1494 397 1959 397 
Q 2419 397 2687 759 
Q 2956 1122 2956 1747 
Q 2956 2369 2687 2733 
Q 2419 3097 1959 3097 
z
M 1959 3584 
Q 2709 3584 3137 3096 
Q 3566 2609 3566 1747 
Q 3566 888 3137 398 
Q 2709 -91 1959 -91 
Q 1206 -91 779 398 
Q 353 888 353 1747 
Q 353 2609 779 3096 
Q 1206 3584 1959 3584 
z
M 2393 5119 
L 3015 5119 
L 1997 3944 
L 1518 3944 
L 2393 5119 
z
" transform="scale(0.015625)"/>
      </defs>
      <use xlink:href="#DejaVuSans-37"/>
      <use xlink:href="#DejaVuSans-48" transform="translate(44.09375 0)"/>
      <use xlink:href="#DejaVuSans-56" transform="translate(105.625 0)"/>
      <use xlink:href="#DejaVuSans-57" transform="translate(157.71875 0)"/>
      <use xlink:href="#DejaVuSans-48" transform="translate(196.921875 0)"/>
      <use xlink:href="#DejaVuSans-1d" transform="translate(258.453125 0)"/>
      <use xlink:href="#DejaVuSans-3" transform="translate(292.140625 0)"/>
      <use xlink:href="#DejaVuSans-46" transform="translate(323.921875 0)"/>
      <use xlink:href="#DejaVuSans-52" transform="translate(378.90625 0)"/>
      <use xlink:href="#DejaVuSans-50" transform="translate(440.09375 0)"/>
      <use xlink:href="#DejaVuSans-53" transform="translate(537.5 0)"/>
      <use xlink:href="#DejaVuSans-44" transform="translate(600.984375 0)"/>
      <use xlink:href="#DejaVuSans-55" transform="translate(662.265625 0)"/>
      <use xlink:href="#DejaVuSans-44" transform="translate(703.375 0)"/>
      <use xlink:href="#DejaVuSans-a9" transform="translate(764.65625 0)"/>
      <use xlink:href="#DejaVuSans-a5" transform="translate(819.640625 0)"/>
      <use xlink:href="#DejaVuSans-52" transform="translate(880.921875 0)"/>
      <use xlink:href="#DejaVuSans-3" transform="translate(942.109375 0)"/>
      <use xlink:href="#DejaVuSans-44" transform="translate(973.890625 0)"/>
      <use xlink:href="#DejaVuSans-53" transform="translate(1035.171875 0)"/>
      <use xlink:href="#DejaVuSans-b5" transform="translate(1098.65625 0)"/>
      <use xlink:href="#DejaVuSans-56" transform="translate(1159.84375 0)"/>
      <use xlink:href="#DejaVuSans-3" transform="translate(1211.9375 0)"/>
      <use xlink:href="#DejaVuSans-56" transform="translate(1243.71875 0)"/>
      <use xlink:href="#DejaVuSans-48" transform="translate(1295.8125 0)"/>
      <use xlink:href="#DejaVuSans-4f" transform="translate(1357.34375 0)"/>
      <use xlink:href="#DejaVuSans-48" transform="translate(1385.125 0)"/>
      <use xlink:href="#DejaVuSans-a9" transform="translate(1446.65625 0)"/>
      <use xlink:href="#DejaVuSans-a5" transform="translate(1501.640625 0)"/>
      <use xlink:href="#DejaVuSans-52" transform="translate(1562.921875 0)"/>
     </g>
    </g>
    <g id="LineCollection_2">
     <path d="M 65.062344 70.17 
L 65.062344 61.17 
" style="fill: none; stroke: #f58a3d; stroke-width: 1.5"/>
    </g>
    <g id="line2d_28">
     <g>
      <use xlink:href="#mb0aa48d598" x="65.062344" y="70.17" style="fill: #f58a3d; stroke: #f58a3d"/>
     </g>
    </g>
    <g id="line2d_29">
     <g>
      <use xlink:href="#mb0aa48d598" x="65.062344" y="61.17" style="fill: #f58a3d; stroke: #f58a3d"/>
     </g>
    </g>
    <g id="line2d_30">
     <path d="M 56.062344 65.67 
L 74.062344 65.67 
" style="fill: none; stroke: #f58a3d; stroke-width: 1.5; stroke-linecap: square"/>
    </g>
    <g id="line2d_31">
     <g>
      <use xlink:href="#m3aa732811e" x="65.062344" y="65.67" style="fill: #f58a3d; stroke: #f58a3d; stroke-linejoin: miter"/>
     </g>
    </g>
    <g id="text_16">
     <!-- Validação interna (média ± desvio) -->
     <g transform="translate(81.262344 68.82) scale(0.09 -0.09)">
      <defs>
       <path id="DejaVuSans-39" d="M 1831 0 
L 50 4666 
L 709 4666 
L 2188 738 
L 3669 4666 
L 4325 4666 
L 2547 0 
L 1831 0 
z
" transform="scale(0.015625)"/>
       <path id="DejaVuSans-b" d="M 1984 4856 
Q 1566 4138 1362 3434 
Q 1159 2731 1159 2009 
Q 1159 1288 1364 580 
Q 1569 -128 1984 -844 
L 1484 -844 
Q 1016 -109 783 600 
Q 550 1309 550 2009 
Q 550 2706 781 3412 
Q 1013 4119 1484 4856 
L 1984 4856 
z
" transform="scale(0.015625)"/>
       <path id="DejaVuSans-ab" d="M 3597 1894 
L 3597 1613 
L 953 1613 
Q 991 1019 1311 708 
Q 1631 397 2203 397 
Q 2534 397 2845 478 
Q 3156 559 3463 722 
L 3463 178 
Q 3153 47 2828 -22 
Q 2503 -91 2169 -91 
Q 1331 -91 842 396 
Q 353 884 353 1716 
Q 353 2575 817 3079 
Q 1281 3584 2069 3584 
Q 2775 3584 3186 3129 
Q 3597 2675 3597 1894 
z
M 3022 2063 
Q 3016 2534 2758 2815 
Q 2500 3097 2075 3097 
Q 1594 3097 1305 2825 
Q 1016 2553 972 2059 
L 3022 2063 
z
M 2468 5119 
L 3090 5119 
L 2072 3944 
L 1593 3944 
L 2468 5119 
z
" transform="scale(0.015625)"/>
       <path id="DejaVuSans-73" d="M 2944 4013 
L 2944 2803 
L 4684 2803 
L 4684 2272 
L 2944 2272 
L 2944 1063 
L 2419 1063 
L 2419 2272 
L 678 2272 
L 678 2803 
L 2419 2803 
L 2419 4013 
L 2944 4013 
z
M 678 531 
L 4684 531 
L 4684 0 
L 678 0 
L 678 531 
z
" transform="scale(0.015625)"/>
       <path id="DejaVuSans-c" d="M 513 4856 
L 1013 4856 
Q 1481 4119 1714 3412 
Q 1947 2706 1947 2009 
Q 1947 1309 1714 600 
Q 1481 -109 1013 -844 
L 513 -844 
Q 928 -128 1133 580 
Q 1338 1288 1338 2009 
Q 1338 2731 1133 3434 
Q 928 4138 513 4856 
z
" transform="scale(0.015625)"/>
      </defs>
      <use xlink:href="#DejaVuSans-39"/>
      <use xlink:href="#DejaVuSans-44" transform="translate(60.640625 0)"/>
      <use xlink:href="#DejaVuSans-4f" transform="translate(121.921875 0)"/>
      <use xlink:href="#DejaVuSans-4c" transform="translate(149.703125 0)"/>
      <use xlink:href="#DejaVuSans-47" transform="translate(177.484375 0)"/>
      <use xlink:href="#DejaVuSans-44" transform="translate(240.96875 0)"/>
      <use xlink:href="#DejaVuSans-a9" transform="translate(302.25 0)"/>
      <use xlink:href="#DejaVuSans-a5" transform="translate(357.234375 0)"/>
      <use xlink:href="#DejaVuSans-52" transform="translate(418.515625 0)"/>
      <use xlink:href="#DejaVuSans-3" transform="translate(479.703125 0)"/>
      <use xlink:href="#DejaVuSans-4c" transform="translate(511.484375 0)"/>
      <use xlink:href="#DejaVuSans-51" transform="translate(539.265625 0)"/>
      <use xlink:href="#DejaVuSans-57" transform="translate(602.640625 0)"/>
      <use xlink:href="#DejaVuSans-48" transform="translate(641.84375 0)"/>
      <use xlink:href="#DejaVuSans-55" transform="translate(703.375 0)"/>
      <use xlink:href="#DejaVuSans-51" transform="translate(742.734375 0)"/>
      <use xlink:href="#DejaVuSans-44" transform="translate(806.109375 0)"/>
      <use xlink:href="#DejaVuSans-3" transform="translate(867.390625 0)"/>
      <use xlink:href="#DejaVuSans-b" transform="translate(899.171875 0)"/>
      <use xlink:href="#DejaVuSans-50" transform="translate(938.1875 0)"/>
      <use xlink:href="#DejaVuSans-ab" transform="translate(1035.59375 0)"/>
      <use xlink:href="#DejaVuSans-47" transform="translate(1097.125 0)"/>
      <use xlink:href="#DejaVuSans-4c" transform="translate(1160.609375 0)"/>
      <use xlink:href="#DejaVuSans-44" transform="translate(1188.390625 0)"/>
      <use xlink:href="#DejaVuSans-3" transform="translate(1249.671875 0)"/>
      <use xlink:href="#DejaVuSans-73" transform="translate(1281.453125 0)"/>
      <use xlink:href="#DejaVuSans-3" transform="translate(1365.25 0)"/>
      <use xlink:href="#DejaVuSans-47" transform="translate(1397.03125 0)"/>
      <use xlink:href="#DejaVuSans-48" transform="translate(1460.515625 0)"/>
      <use xlink:href="#DejaVuSans-56" transform="translate(1522.046875 0)"/>
      <use xlink:href="#DejaVuSans-59" transform="translate(1574.140625 0)"/>
      <use xlink:href="#DejaVuSans-4c" transform="translate(1633.328125 0)"/>
      <use xlink:href="#DejaVuSans-52" transform="translate(1661.109375 0)"/>
      <use xlink:href="#DejaVuSans-c" transform="translate(1722.296875 0)"/>
     </g>
    </g>
   </g>
  </g>
 </g>
 <defs>
  <clipPath id="p8978f2fd24">
   <rect x="47.962344" y="26.16" width="517.237656" height="291.717656"/>
  </clipPath>
 </defs>
</svg>
